 <svg
      viewBox="0 0 652 86"
      fill="none"
      xmlns="http://www.w3.org/2000/svg"
    >
      <g clipPath="url(#clip0_2062_691)">
        <path
          fillRule="evenodd"
          clipRule="evenodd"
          d="M130.795 42.5523H150.156C148.867 37.6337 145.335 35.6394 141.033 35.6394C136.303 35.6394 132.512 38.2176 130.795 42.5523ZM161.515 50.9634H130.109C131.398 57.2985 136.73 59.6328 141.376 59.6328C147.227 59.6328 149.729 56.1323 149.729 56.1323H160.569C157.297 64.4623 149.469 69.0418 141.033 69.0418C129.415 69.0418 119.262 60.4606 119.262 47.4693C119.262 34.5537 129.331 26.5557 140.689 26.5557C151.705 26.5557 162.895 33.9695 161.515 50.9634Z"
          fill="currentColor"
        />
        <path
          fillRule="evenodd"
          clipRule="evenodd"
          d="M268.205 47.8017C268.205 41.3028 264.246 36.2221 257.708 36.2221C251.164 36.2221 246.777 41.3028 246.777 47.8017C246.777 54.3005 251.164 59.3809 257.708 59.3809C264.246 59.3809 268.205 54.3005 268.205 47.8017ZM235.503 47.8824C235.503 34.5537 246.174 26.5557 257.708 26.5557C269.326 26.5557 279.479 34.6348 279.479 47.7132C279.479 60.9618 268.975 69.0409 257.358 69.0409C245.656 69.0409 235.503 60.9618 235.503 47.8824Z"
          fill="currentColor"
        />
        <path
          fillRule="evenodd"
          clipRule="evenodd"
          d="M325.544 46.0522V68.6278H314.093V48.5483C314.093 47.1309 315.132 36.6358 306.87 36.223C302.82 35.9717 295.595 38.135 295.595 49.0505V68.6278H284.238V26.9696H294.664L294.698 32.7526C294.698 32.7526 299.399 26.5557 308.166 26.5557C319.266 26.5557 325.544 34.5537 325.544 46.0522Z"
          fill="currentColor"
        />
        <path
          fillRule="evenodd"
          clipRule="evenodd"
          d="M367.398 35.3879C363.783 35.3879 362.232 37.138 362.232 38.8884C362.232 41.7175 366.108 42.5517 368.688 43.0538C376.352 44.6338 384.095 46.8864 384.095 55.7112C384.095 64.2931 376.782 69.0418 367.918 69.0418C358.021 69.0418 350.364 63.2144 349.845 54.3822H360.426C360.684 56.8783 362.407 60.1276 367.656 60.1276C372.042 60.1276 373.081 57.8827 373.081 56.1323C373.081 53.0458 370.067 52.1296 367.137 51.4646C362.066 50.3795 351.135 48.3855 351.135 38.8884C351.135 30.7211 359.228 26.5557 367.574 26.5557C377.209 26.5557 383.576 32.2203 384.095 39.2204H373.508C373.164 37.8029 371.791 35.3879 367.398 35.3879Z"
          fill="currentColor"
        />
        <path
          fillRule="evenodd"
          clipRule="evenodd"
          d="M418.885 47.8017C418.885 40.8827 415.012 36.8053 409.419 36.8053C404.169 36.8053 398.914 40.4686 398.914 47.8017C398.914 55.1282 404.169 58.798 409.419 58.798C415.012 58.798 418.885 54.7145 418.885 47.8017ZM429.641 26.9696V85.2878H418.885V64.5434C416.133 67.5417 412.257 69.0409 407.778 69.0409C396.856 69.0409 387.731 60.3788 387.731 47.8013C387.731 35.2177 396.856 26.5557 407.778 26.5557C416.366 26.5557 419.582 32.1349 419.582 32.1349L419.564 26.9696H429.641Z"
          fill="currentColor"
        />
        <path
          fillRule="evenodd"
          clipRule="evenodd"
          d="M491.137 42.5523H510.496C509.206 37.6337 505.674 35.6394 501.374 35.6394C496.644 35.6394 492.853 38.2176 491.137 42.5523ZM521.854 50.9634H490.442C491.739 57.2985 497.071 59.6328 501.715 59.6328C507.569 59.6328 510.069 56.1323 510.069 56.1323H520.908C517.637 64.4623 509.808 69.0418 501.374 69.0418C489.754 69.0418 479.603 60.4606 479.603 47.4693C479.603 34.5537 489.671 26.5557 501.03 26.5557C512.044 26.5557 523.236 33.9695 521.854 50.9634Z"
          fill="currentColor"
        />
        <path
          fillRule="evenodd"
          clipRule="evenodd"
          d="M536.858 42.5523H556.217C554.927 37.6337 551.395 35.6394 547.095 35.6394C542.365 35.6394 538.575 38.2176 536.858 42.5523ZM567.575 50.9634H536.17C537.46 57.2985 542.792 59.6328 547.436 59.6328C553.29 59.6328 555.79 56.1323 555.79 56.1323H566.629C563.358 64.4623 555.529 69.0418 547.095 69.0418C535.476 69.0418 525.324 60.4606 525.324 47.4693C525.324 34.5537 535.393 26.5557 546.751 26.5557C557.765 26.5557 568.957 33.9695 567.575 50.9634Z"
          fill="currentColor"
        />
        <path
          fillRule="evenodd"
          clipRule="evenodd"
          d="M605.892 59.3V68.627H569.32V63.1264L590.062 36.3039H570.183V26.9697H605.035V32.4705L584.294 59.3H605.892Z"
          fill="currentColor"
        />
        <path
          fillRule="evenodd"
          clipRule="evenodd"
          d="M650.667 26.9697V63.6283V64.4625C650.667 75.71 644.724 85.7094 630.008 85.7094C616.239 85.7094 608.757 76.958 608.757 70.3783H619.513C619.513 70.3783 621.144 75.961 629.664 75.961C636.898 75.961 639.911 71.9583 639.911 66.1309V64.3808C638.009 66.4638 634.404 69.042 627.947 69.042C616.675 69.042 609.617 61.1321 609.617 49.5519L609.528 26.9697H620.717V47.0493C620.717 52.713 622.784 59.382 629.925 59.382C633.623 59.382 639.736 57.6316 639.736 46.5471V26.9697H650.667Z"
          fill="currentColor"
        />
        <path
          fillRule="evenodd"
          clipRule="evenodd"
          d="M111.071 56.1221C111.071 58.7199 112.094 59.7915 113.993 59.7915C115.331 59.7915 116.2 59.6361 117.468 59.2558L118.176 67.8168C115.807 68.5764 113.517 69.0377 110.594 69.0377C103.889 69.0377 99.7825 66.9009 99.7825 57.6486V10.3091H111.071V56.1221Z"
          fill="currentColor"
        />
        <path
          fillRule="evenodd"
          clipRule="evenodd"
          d="M230.647 46.0521V68.6277H219.197V48.5483C219.197 42.8025 219.8 35.5515 211.882 36.2229C209.822 36.3857 204.139 37.3007 204.139 49.0504V68.6277H192.781V48.5483C192.781 42.8025 193.383 35.5515 185.466 36.2229C183.398 36.3857 177.723 37.3007 177.723 49.0504V68.6277H166.364V26.9695H176.792L176.801 32.7525C176.801 32.7525 180.786 26.5556 188.219 26.5556C197.175 26.5556 200.691 33.3017 200.691 33.3017C200.691 33.3017 204.547 26.4746 214.383 26.4746C225.567 26.4746 230.647 34.4725 230.647 46.0521Z"
          fill="currentColor"
        />
        <path
          fillRule="evenodd"
          clipRule="evenodd"
          d="M434.469 49.5455V26.9697H445.92V47.0493C445.92 48.4665 444.881 58.9615 453.144 59.3746C457.192 59.6259 464.416 57.4624 464.416 46.5471V26.9697H475.777V68.6279H465.362L465.316 62.8451C465.316 62.8451 460.613 69.042 451.847 69.042C440.747 69.042 434.469 61.044 434.469 49.5455Z"
          fill="currentColor"
        />
        <path
          fillRule="evenodd"
          clipRule="evenodd"
          d="M21.2799 52.7845L44.3504 63.4507C47.2096 64.7732 49.2281 66.993 50.3182 69.5392C53.0751 75.987 49.3071 82.5814 43.3918 84.9531C37.4759 87.3237 31.1706 85.7981 28.3038 79.0928L18.2636 55.5519C17.4855 53.7271 19.44 51.934 21.2799 52.7845Z"
          fill="#FFC233"
        />
        <path
          fillRule="evenodd"
          clipRule="evenodd"
          d="M22.6657 45.8799L46.4803 36.8775C54.395 33.8856 63.0408 39.5466 62.9244 47.7719C62.9226 47.8794 62.9207 47.9866 62.9179 48.095C62.7469 56.1047 54.3416 61.4882 46.6007 58.6545L22.6883 49.9025C20.7808 49.2047 20.7667 46.5977 22.6657 45.8799Z"
          fill="#FFC233"
        />
        <path
          fillRule="evenodd"
          clipRule="evenodd"
          d="M21.331 42.7617L44.7418 32.8142C52.5211 29.5083 54.4954 19.5863 48.4026 13.8535C48.3228 13.778 48.2429 13.7034 48.1621 13.6288C42.1885 8.08422 32.3139 10.0364 28.9131 17.3394L18.4078 39.9025C17.5696 41.7017 19.464 43.5547 21.331 42.7617Z"
          fill="#FFC233"
        />
        <path
          fillRule="evenodd"
          clipRule="evenodd"
          d="M15.3064 38.8308L23.8179 15.4927C24.8731 12.599 24.6776 9.64797 23.5867 7.10176C20.8241 0.656611 13.3426 -1.42385 7.42834 0.951347C1.51509 3.32746 -1.82633 8.72375 1.0462 15.4263L11.1522 38.9417C11.9359 40.764 14.628 40.6921 15.3064 38.8308Z"
          fill="#FFC233"
        />
      </g>
      <defs>
        <clipPath id="clip0_2062_691">
          <rect width="651.143" height="86" fill="currentColor" />
        </clipPath>
      </defs>
    </svg>