<svg version="1.2" xmlns="http://www.w3.org/2000/svg" viewBox="0 0 886 886" width="1024" height="1024">
	<title>GUP-LOGO-svg</title>
	<style>
		.s0 { fill: #120032 } 
		.s1 { fill: #601abe } 
		.s2 { fill: #ffffff } 
	</style>
	<g id="Background">
		<path id="Path 0" class="s0" d="m431.5 11c-6.1 0.5-18.2 1.8-27 3-8.8 1.1-22.5 3.4-30.5 5-8 1.6-21.3 4.8-29.5 7.1-8.3 2.2-20.9 6.2-28 8.9-7.1 2.6-18.9 7.3-26 10.5-7.1 3.2-18.2 8.6-24.5 12-6.3 3.4-15.3 8.6-20 11.5-4.7 2.9-12.1 7.8-16.5 10.9-4.4 3.1-12.5 9.2-18 13.5-5.5 4.4-17.4 15.2-26.3 24-9 8.9-20.8 21.5-26.1 28.1-5.4 6.6-13.2 16.9-17.3 23-4.2 6.1-9.3 13.9-11.5 17.5-2.2 3.6-6.7 11.4-10 17.5-3.3 6.1-8.1 15.7-10.8 21.5-2.6 5.8-6.5 14.8-8.5 20-2.1 5.2-5.7 15.1-8 22-2.2 6.9-5.6 18.4-7.5 25.5-1.9 7.1-4.5 18.4-5.9 25-1.4 6.6-3.6 20.3-5 30.5-1.4 10.2-3 27.5-3.7 38.5-0.7 12.6-0.9 31-0.5 49.5 0.3 16.2 1.1 34.9 1.6 41.5 0.6 6.6 2.2 21.2 3.6 32.5 1.4 11.3 3.9 27.7 5.5 36.5 1.7 8.8 4.6 22.5 6.6 30.5 1.9 8 5.3 20.4 7.4 27.5 2.2 7.1 5.8 18.2 8 24.5 2.3 6.3 6.9 18 10.2 26 3.3 8 9.2 20.6 13 28 3.8 7.4 9.7 18 13 23.5 3.3 5.5 9 14.5 12.7 20 3.7 5.5 10.7 15.2 15.6 21.5 4.9 6.3 16.1 18.8 24.9 27.8 8.8 9 20.4 20.1 25.8 24.6 5.4 4.4 14.9 11.6 21 15.9 6.2 4.4 16 10.8 22 14.3 5.9 3.5 14.6 8.4 19.5 10.8 4.8 2.4 13 6.2 18.2 8.4 5.2 2.2 14.9 5.9 21.5 8.2 6.6 2.2 16.9 5.4 23 7 6.1 1.6 15.5 3.8 21 4.9 5.5 1.1 15.6 2.8 22.5 3.7 9.9 1.4 19.4 1.8 45.5 1.9 21.2 0 36.7-0.5 43.5-1.3 5.8-0.7 15.4-2.2 21.5-3.3 6.1-1.1 15.3-2.9 20.5-4 5.2-1.1 16.3-3.7 24.5-5.9 8.3-2.1 22-6.2 30.5-9 8.5-2.8 20.7-7.2 27-9.7 6.3-2.4 19.4-8.3 29-13 9.6-4.6 22.9-11.6 29.5-15.5 6.6-3.9 15.8-9.7 20.5-12.8 4.7-3.2 13.7-9.7 20-14.6 6.3-4.9 18.6-15.9 27.4-24.4 8.7-8.5 19.3-19.8 23.5-25 4.2-5.2 10.4-13.3 13.7-18 3.3-4.7 8.8-13 12.1-18.5 3.3-5.5 8.1-14.2 10.7-19.3 2.5-5 6.2-13.1 8.2-18 2-4.8 5.2-13.2 7.1-18.7 1.9-5.5 4.9-16.1 6.8-23.5 1.8-7.4 4.1-19.4 5.1-26.5 1.5-10.2 1.9-18.6 1.8-39 0-21.8-0.4-28.2-2.2-39.5-1.3-7.4-3.8-19.6-5.7-27-1.8-7.4-5-18.2-7-24-2.1-5.8-5.9-15.7-8.7-22-2.7-6.3-8-17.1-11.8-24-3.8-6.9-7.5-13.4-8.3-14.5-1.3-1.8-1.1-2.7 1.5-8.5 1.7-3.6 4.3-10.3 5.9-15 1.5-4.7 3.7-13 4.9-18.5 1.5-7.1 2.3-15.2 2.7-28 0.4-13.9 0.2-20.4-1.1-28.5-0.9-5.8-2.8-14.8-4.2-20-1.4-5.2-3.7-12.4-5.1-16-1.4-3.6-4.3-10.1-6.5-14.5-2.2-4.4-6.5-11.8-9.5-16.5-3-4.7-6.6-9.6-8-11l-2.4-2.5c1.9-17 2.1-28.8 1.8-41.5-0.4-17.3-0.9-22.1-3-31-1.4-5.8-4-14.6-5.8-19.5-1.8-4.9-5.5-13.3-8.2-18.5-2.7-5.2-7.4-13.3-10.5-18-3.6-5.4-11-13.9-20.2-23.1-10.4-10.5-17.2-16.4-24-20.8-5.2-3.5-14.5-8.7-20.5-11.6-6-2.9-14.6-6.4-19-7.9-4.4-1.4-13.6-3.9-20.5-5.6-6.9-1.7-20.6-4.6-30.5-6.5-9.9-1.8-24.7-4.3-33-5.5-8.2-1.1-21.5-2.7-29.5-3.6-9.1-0.9-27.6-1.6-49.5-1.9-19.2-0.2-39.9 0-46 0.5z"/>
		<path id="Path 1" class="s1" d="m445 35.6c-2.5 0.2-10.1 0.8-17 1.4-6.9 0.6-18.8 2-26.5 3.1-7.7 1.1-19.2 3.1-25.5 4.4-6.3 1.4-17.9 4.3-25.8 6.5-7.8 2.2-20.2 6.2-27.4 8.9-7.3 2.7-18.2 7.2-24.3 9.9-6.1 2.8-16.2 7.8-22.5 11.2-6.3 3.4-17.1 9.9-24 14.5-6.9 4.5-17.2 12-23 16.5-5.8 4.6-17.2 14.9-25.4 22.9-8.2 8-18.9 19.5-23.9 25.6-4.9 6.1-12 15.3-15.7 20.5-3.7 5.2-9.6 14.2-13 20-3.5 5.8-9.4 16.6-13.1 24-3.7 7.4-9.2 19.6-12.2 27-3 7.4-7.3 19.4-9.5 26.5-2.3 7.1-5 16.4-6.1 20.5-1.1 4.1-3.2 12.9-4.6 19.5-1.5 6.6-3.5 17.6-4.5 24.5-1.1 6.9-2.6 19.5-3.4 28-0.9 8.5-1.8 24.7-2.2 36-0.3 11.5-0.1 30.2 0.5 42.8 0.6 12.2 2 30.9 3.1 41.5 1.2 10.5 3 25.1 4.1 32.2 1 7.1 3.3 19.8 4.9 28 1.7 8.2 4.8 21.5 7 29.5 2.2 8 5.9 20.6 8.3 28 2.5 7.4 7 20 10.2 28 3.1 8 9 21.3 13.1 29.5 4 8.2 10.3 20 14 26 3.6 6 9.4 15.3 12.9 20.5 3.5 5.2 10.3 14.5 15.1 20.5 4.8 6 14.9 17.2 22.3 24.9 7.5 7.6 18.1 17.6 23.6 22.3 5.5 4.6 17.4 13.4 26.5 19.5 9.9 6.6 22.9 14.1 32.5 18.8 8.8 4.3 22.1 10.1 29.5 12.8 7.4 2.7 19.6 6.6 27 8.5 7.4 2 18.7 4.5 25 5.6 6.3 1.1 16.4 2.6 22.5 3.3 6.1 0.7 22 1.3 35.5 1.3 13.5 0 29.9-0.6 36.5-1.3 6.6-0.7 19.4-2.7 28.5-4.3 9.1-1.7 24.1-5 33.5-7.4 9.4-2.4 24.4-6.8 33.5-9.8 9.1-3 21.9-7.6 28.5-10.3 6.6-2.6 20.3-9 30.5-14 10.2-5.1 24.8-13.3 32.5-18.3 7.7-4.9 19.2-12.9 25.5-17.8 6.3-4.8 18.2-15.3 26.4-23.3 8.2-8 18.7-19.2 23.3-25 4.6-5.8 12-15.9 16.4-22.5 4.4-6.6 11.6-19.2 15.9-28 4.3-8.8 9.5-20.5 11.5-26 2.1-5.5 5.2-15.9 7.1-23 1.8-7.1 4-17 4.8-22 0.8-5 2-16 2.7-24.5 1-12.3 1-18.7 0.1-31-0.7-8.5-1.9-19.8-2.7-25-0.9-5.2-2.9-14.7-4.5-21-1.6-6.3-4.7-16.8-6.9-23.3-2.3-6.4-6.1-16.3-8.7-21.9-2.5-5.7-7-14.8-10.1-20.3-3-5.5-8-13.7-10.9-18.3l-5.4-8.2c6.9-13.6 10.5-21.9 12.4-27.3 2-5.3 4.6-14.3 5.8-19.9 1.7-8.2 2.1-13.8 2.2-27.3 0-13.6-0.5-19-2.2-27-1.1-5.5-3.5-14.1-5.3-19-1.7-4.9-4.9-12.6-7.1-17-2.2-4.4-6-10.9-8.4-14.5-2.3-3.6-7.1-9.9-10.5-14l-6.2-7.5c4.5-18.8 4.8-22.4 4.8-39.5 0-12.5-0.5-22-1.4-26.5-0.7-3.8-2.8-11.7-4.7-17.5-1.8-5.8-5.6-15-8.5-20.5-2.8-5.5-7.1-12.9-9.7-16.5-2.5-3.6-9.5-11.6-15.6-17.8q-11.1-11.4-20.6-17.7c-5.2-3.4-11.8-7.4-14.5-8.8-2.8-1.4-8.5-3.9-12.8-5.6-4.2-1.7-13.2-4.5-20-6.2-6.7-1.7-19.8-4.5-29.2-6.4-9.4-1.8-23.1-4.3-30.5-5.4-7.4-1.1-22.7-3-34-4.1-13.6-1.4-29.7-2.2-48-2.5-15.1-0.1-29.5-0.1-32 0.1z"/>
		<path id="Path 2" class="s0" d="m440 101c-6.3 0.5-18 1.9-26 3-8 1.1-21.7 3.6-30.5 5.6-8.8 2-21.2 5.3-27.5 7.4-6.3 2-16 5.7-21.5 8-5.5 2.3-14.9 6.7-21 9.8-6.1 3-15.3 8.2-20.5 11.5-5.2 3.2-13.8 9.2-19 13.1-5.2 3.9-16 13.4-23.9 21.1-7.9 7.7-18 18.5-22.4 24-4.4 5.5-11.3 14.9-15.3 21-4 6.1-10.4 17.1-14.3 24.5-3.8 7.4-9.4 19.6-12.4 27-3 7.4-7.1 18.9-9 25.5-2 6.6-5 18.1-6.7 25.5-1.7 7.4-4.2 21.1-5.5 30.5-1.4 9.4-3 26.9-3.6 39-0.9 16.7-0.9 28.1-0.1 47.5 0.7 14 1.9 31.6 2.7 39 0.8 7.4 2.2 18.4 3.1 24.5 0.8 6 2.7 16.9 4 24 1.4 7.1 4.1 19.1 5.9 26.5 1.9 7.4 4.7 17.8 6.3 23 1.5 5.2 5.5 16.5 8.7 25 3.3 8.5 9.6 22.9 14.1 32 4.5 9.1 11.7 21.9 15.9 28.5 4.2 6.6 10.2 15.4 13.3 19.5 3.1 4.1 10 12.5 15.3 18.5 5.3 6 15.2 15.7 21.8 21.5 6.7 5.8 16.3 13.3 21.4 16.8 5.1 3.5 13.5 8.8 18.7 11.7 5.2 3 14.7 7.7 21 10.4 6.3 2.7 16.4 6.4 22.5 8.4 6.1 1.9 16.6 4.6 23.5 6 6.9 1.4 16.1 3.1 20.5 3.7 4.4 0.6 15.4 1.3 24.5 1.7 9.5 0.3 22.7 0.1 31-0.6 8-0.7 18.1-1.8 22.5-2.6 4.4-0.7 12.7-2.3 18.5-3.5 5.8-1.1 16.4-3.6 23.5-5.5 7.1-1.9 17.7-5 23.5-6.8 5.8-1.9 16.6-5.8 24-8.7 7.4-3 20.3-8.8 28.5-13 8.3-4.1 19.3-10.2 24.5-13.5 5.2-3.3 14-9.3 19.5-13.5 5.5-4.1 15.8-13.1 22.9-20 7.1-6.9 15.7-16.1 19.3-20.5 3.5-4.4 8.8-11.6 11.7-16 2.9-4.4 7.4-11.8 9.9-16.5 2.5-4.7 6.6-13.5 9-19.5 2.4-6 5.6-15.5 7-21 1.5-5.5 3.4-14.5 4.3-20 1.2-6.7 1.7-15.7 1.8-27.5 0-9.6-0.6-21.1-1.3-25.5-0.7-4.4-2.5-13.2-4.1-19.5-1.5-6.3-4.5-16-6.5-21.5-2.1-5.5-6.6-15.6-10.1-22.5-3.4-6.9-9.4-17.2-13.2-23-3.9-5.8-10.6-14.8-15-20-4.3-5.2-11.6-13.3-16.1-18-4.4-4.7-8-8.5-7.8-8.6 0.1-0.1 3.5-1.9 7.6-4 4.6-2.4 10.2-6.6 14.6-10.9 4-3.9 9.1-9.9 11.4-13.5 2.3-3.6 5.2-9.4 6.6-13 1.3-3.6 2.9-8.3 3.5-10.5 0.5-2.2 1.3-8.1 1.7-13 0.4-6.6 0.1-11.2-1.2-17.5-0.9-4.7-2.9-11.4-4.3-15-1.5-3.6-4.4-9.2-6.6-12.5-2.1-3.3-7.1-9.1-11-12.9-3.9-3.8-10-8.6-13.6-10.6-3.6-2.1-9.2-4.8-12.5-5.9-3.3-1.2-9.3-2.7-13.3-3.4l-7.3-1.2c8.1-6.2 13.3-11.2 16.8-15 4.4-4.7 7.8-9.9 10.8-16 2.4-4.9 5.1-12.3 5.9-16.3 0.9-4 1.6-11.8 1.6-17.5 0-6.6-0.7-12.9-1.9-17.7-1-4.1-3.6-10.9-5.6-15-2.1-4.1-6.1-10.4-8.9-13.8-2.8-3.5-7.8-8.6-11.1-11.3-3.3-2.7-9.1-6.5-13-8.4-3.9-1.9-11.3-4.5-16.5-5.9-5.2-1.4-17.4-4.1-27-6-9.6-1.9-23.6-4.4-31-5.5-7.4-1.1-20.5-2.7-29-3.6-8.5-0.9-27-1.8-41-2-14-0.2-30.7 0-37 0.5z"/>
		<path id="Path 4" class="s2" d="m447.5 125.7c-2.8 0.1-10.2 0.8-16.5 1.4-6.3 0.6-16.7 1.9-23 3-6.3 1.1-17.1 3.4-24 5-6.9 1.7-18.4 5.1-25.5 7.6-7.1 2.5-19.8 7.7-28 11.7-8.3 4-18.8 9.6-23.5 12.6-4.7 2.9-12.8 8.5-18 12.4-5.2 3.9-14.8 12.3-21.4 18.6-6.5 6.3-15.5 16-19.9 21.5-4.4 5.5-10.9 14.3-14.3 19.5-3.4 5.2-8.9 14.7-12.3 21-3.3 6.3-7.6 15.3-9.6 20-2 4.7-5.4 13.4-7.5 19.5-2 6.1-4.9 15.3-6.3 20.5-1.4 5.2-3.7 15.1-5.1 22-1.4 6.9-3.2 17.9-4 24.5-0.9 6.6-2.1 20.1-2.7 30-0.6 10.4-0.8 26.4-0.5 38 0.4 11 1.1 25.9 1.7 33 0.6 7.1 1.9 20 3 28.5 1.1 8.5 3.1 21.6 4.5 29 1.4 7.4 4.1 19.8 6 27.5 1.9 7.7 6.1 21.9 9.4 31.5 3.2 9.6 7.9 22.2 10.5 28 2.5 5.8 7.5 16.1 11.1 23 3.6 6.9 10.3 18.1 14.9 25 4.5 6.9 11.9 16.8 16.3 22 4.3 5.2 12.6 14 18.3 19.5 5.7 5.4 14.9 13.2 20.4 17.3 5.5 4.1 14.1 9.8 19 12.8 4.9 2.9 12.4 6.8 16.5 8.7 4.1 1.9 12 5.1 17.5 7.2 5.5 2 15.2 5 21.5 6.6 6.3 1.5 16.7 3.6 23 4.6 8.4 1.2 17.7 1.7 34.5 1.7 13.4 0 26.8-0.5 32-1.3 4.9-0.7 15.5-2.6 23.5-4.2 8-1.6 19.4-4.3 25.5-5.9 6-1.6 16-4.6 22-6.6 6-2 15-5.2 20-7.1 5-1.9 16.2-7 25-11.3 8.8-4.3 21-11.1 27-15.1 6-3.9 14.6-9.9 19-13.2 4.4-3.3 13.9-11.9 21-19.1 7.1-7.2 16-17.4 19.7-22.6 3.7-5.2 9-13.5 11.7-18.5 2.8-5 6.9-13.7 9.2-19.5 2.3-5.8 5.4-15.5 7-21.5 1.5-6 3.3-16.4 3.9-23 0.7-6.9 0.9-16.1 0.6-21.5-0.4-5.2-1.2-12.6-1.7-16.5-0.6-3.9-2.2-11.5-3.6-17-1.3-5.5-3.9-13.8-5.7-18.5-1.9-4.7-5.6-13-8.4-18.5-2.7-5.5-7.8-14.3-11.2-19.5-3.5-5.2-8.8-12.6-11.9-16.5-3-3.9-10-11.7-15.6-17.4-5.5-5.7-14-13.7-19-17.9-5-4.1-12.7-10.3-17.3-13.6-4.5-3.4-8.2-6.3-8.2-6.6 0-0.3 9.1-2.9 20.2-5.8 13.9-3.7 22.5-6.5 27.2-9 3.8-2.1 9.4-6.2 12.4-9.2 3.3-3.4 6.7-8.2 8.8-12.5 1.8-3.9 3.9-10.1 4.5-14 1-5.5 1-8.7 0.1-15-0.8-5.2-2.4-10.5-4.6-15-1.9-3.9-5.5-9.1-8-11.8-2.5-2.6-7-6.3-9.8-8.2-2.9-2-8.2-4.4-11.8-5.5-4.4-1.4-9.3-2-15-2-7.8 0-15.7 1.9-102 24.6-52.8 13.9-95.9 25.8-99 27.2-3 1.5-8 5-11 7.8-3 2.8-7.2 8-9.2 11.5-2.1 3.5-4.5 9.5-5.4 13.4-1.2 4.9-1.5 9.4-1.1 15 0.4 6.6 4.4 21 23.1 83.5 12.4 41.5 23.8 78.2 25.3 81.5 1.8 3.7 5.3 8.4 9.3 12.6 3.8 3.8 8.8 7.7 12 9.2 3 1.5 8 3.4 11 4.2 3 0.8 8.6 1.5 12.5 1.5 3.9 0 9.5-0.7 12.5-1.6 3-0.9 8.2-3 11.5-4.7 3.2-1.8 8.2-5.5 11.1-8.2 3-2.9 6.6-7.9 8.6-12 2-3.9 4.1-9.5 4.8-12.5 0.7-3.2 1-8.9 0.8-13.5-0.4-6.1-2.3-14.2-8.2-34-4.2-14.3-7.4-26.1-7.1-26.3 0.3-0.1 4 1.8 8.2 4.4 4.3 2.5 12 7.5 17.2 11.2 5.2 3.7 13.7 10.8 18.9 15.7 5.2 4.9 12.4 12.8 15.9 17.5 3.5 4.7 8.4 12.5 10.8 17.5 2.4 5 5.1 11.7 5.9 15 0.8 3.3 1.8 8.5 2.1 11.5 0.4 3 0.2 8.9-0.5 13-0.6 4.1-2.2 10.2-3.6 13.5-1.3 3.3-3.9 8.5-5.7 11.5-1.7 3-7.7 10-13.2 15.6-6.6 6.7-13.4 12.4-20 16.7-5.5 3.6-16.1 9.5-23.5 13-7.4 3.6-18.2 8.2-24 10.2-5.8 2-16.4 5.1-23.5 7-7.1 1.9-18.2 4.4-24.5 5.7-9.3 1.8-15 2.2-29.5 2.3-11.5 0-20.5-0.5-25-1.4-3.9-0.8-10.4-2.5-14.5-3.8-4.1-1.3-10.9-4.1-15-6.2-4.1-2-10.4-5.7-14-8-3.6-2.4-11-8.9-16.5-14.5-6.2-6.2-12.8-14.3-17.4-21.1-4-6-9.5-15.3-12.1-20.5-2.6-5.2-6.8-14.7-9.3-21-2.5-6.3-6.1-16.9-8-23.5-1.9-6.6-4.6-17.4-6-24-1.4-6.6-3.5-18.1-4.6-25.5-1.1-7.4-2.5-19.4-3.2-26.5-0.7-7.1-1.3-25.8-1.3-41.5 0-17.5 0.4-32.4 1.2-38.5 0.7-5.5 2.6-16.5 4.2-24.5 1.6-8 4.8-19.9 7-26.5 2.3-6.6 5.7-15.4 7.7-19.5 1.9-4.1 5.1-10.2 7.1-13.5 1.9-3.3 5.9-9.1 8.7-13 2.9-3.9 7.6-9.7 10.6-12.9 3-3.2 9-8.8 13.4-12.3 4.4-3.6 12.3-9 17.5-12.1 5.2-3.1 14.5-7.7 20.5-10.1 6.1-2.4 16.9-5.9 24-7.6 7.1-1.8 18.9-4.1 26-5.1 9.7-1.3 19.4-1.8 38-1.8 17.4 0 29.4 0.5 39.5 1.7 8 1 21 2.9 29 4.3 8 1.3 20.6 3.8 28 5.5 11.3 2.6 15 3 22.5 2.6 6.6-0.3 10.8-1.2 15.5-3.1 3.6-1.4 9.2-4.7 12.5-7.4 3.3-2.6 7.9-7.7 10.3-11.2 2.4-3.6 5.3-9.7 6.4-13.5 1.7-5.7 2-8.9 1.7-17-0.4-9.3-0.8-10.6-4.6-18.5-3.1-6.5-5.6-9.9-10.4-14.5-3.5-3.3-8.9-7.3-11.9-8.8-3-1.5-12.3-4.3-20.5-6.2-8.3-1.9-22.9-4.8-32.5-6.4-9.6-1.6-23.6-3.7-31-4.5-7.4-0.9-20.3-2-28.5-2.6-8.3-0.5-21.8-0.9-30-0.8-8.3 0.1-17.3 0.3-20 0.5z"/>
	</g>
</svg>