<svg version="1.2" xmlns="http://www.w3.org/2000/svg" viewBox="0 0 1032 1272" width="1032" height="1272"><style>.a{fill:#fff}</style><path class="a" d="m525 1.3c-5.5 0.4-20.4 1.6-33 2.8-12.7 1.2-33.4 4-46 6.2-12.7 2.1-34.3 6.6-48 10-13.8 3.4-36.7 10.2-51 15.1-14.3 4.9-39.5 15.5-56 23.4-16.5 8-37.7 19.3-47 25.1-9.4 5.9-25.5 17.1-35.9 24.9-10.5 7.8-29.7 24.5-42.8 37.2-13.1 12.6-31.1 32-39.9 43-8.9 11-21.7 28.5-28.6 39-6.8 10.4-17.9 29.3-24.5 42-6.6 12.6-15.3 30.6-19.3 40-4 9.3-10.7 26.9-14.9 39-4.2 12.1-9.9 30.5-12.8 41-2.8 10.4-7.4 30.2-10.1 44-2.8 13.7-6.4 35.8-8.1 49-1.6 13.2-4 40.2-5.3 60-1.3 20.9-1.7 52.8-0.9 76 0.7 22 2.2 51.7 3.3 66 1.1 14.3 3.8 39.9 6 57 2.1 17 6.1 43.1 8.9 58 2.8 14.8 8.3 39.6 12.1 55 3.8 15.4 12.2 43.7 18.7 63 6.5 19.2 16 44.4 21.1 56 5 11.5 15.1 32.2 22.3 46 7.2 13.7 20.5 36.2 29.7 50 9.1 13.7 23.7 33.5 32.5 44 8.8 10.4 25.3 28 36.7 38.9 11.5 11 29.8 26.6 40.8 34.7 11 8.2 28.1 19.7 38 25.5 9.9 5.8 24.7 13.7 33 17.5 8.2 3.8 24 10.2 35 14.3 11 4.1 30.3 10.1 43 13.2 12.6 3.2 33.3 7.3 46 9.2 16.8 2.6 35.3 3.5 69 3.5 26.7 0.1 53.5-1 64-2.5 9.9-1.4 31-5.2 47-8.5 15.9-3.2 38.9-8.5 51-11.8 12.1-3.2 31.9-9.1 44-13.1 12.1-4 30.1-10.4 40-14.3 9.9-3.8 32.4-14 50-22.6 17.6-8.7 41.9-22.2 54-30.1 12.1-8 29.2-19.9 38-26.5 8.8-6.7 27.7-23.9 42-38.2 14.3-14.4 32-34.8 39.4-45.2 7.4-10.5 17.9-27.1 23.4-37 5.5-9.9 13.8-27.5 18.4-39 4.6-11.6 10.9-30.9 13.9-43 3-12.1 6.6-32.8 7.9-46 1.4-13.7 1.9-32.2 1.1-43-0.7-10.5-2.2-25.3-3.4-33-1.1-7.7-4.3-23-7-34-2.8-11-8-27.7-11.6-37-3.6-9.4-11.1-26-16.6-37-5.6-11-15.7-28.6-22.6-39-6.9-10.5-17.5-25.3-23.6-33-6.2-7.7-20.2-23.3-31.2-34.7-11.1-11.4-28.2-27.6-38.1-35.9-9.9-8.3-25.4-20.6-34.5-27.3-9.1-6.6-16.6-12.6-16.6-13.1 0-0.6 18.3-5.8 40.6-11.7 27.7-7.3 44.9-13 54.3-18 7.7-4 18.8-12.3 24.8-18.3 6.6-6.7 13.4-16.5 17.5-25 3.7-7.7 7.8-20.3 9.2-28 1.9-11 1.9-17.5 0.1-30-1.6-10.4-4.8-20.9-9.3-30-3.7-7.7-10.9-18.3-16-23.5-5-5.2-13.8-12.7-19.6-16.6-5.8-3.8-16.4-8.8-23.5-11-8.8-2.7-18.5-4-30-3.9-15.7 0-31.4 3.8-204 49.2-105.7 27.8-191.8 51.5-198 54.5-6.1 2.9-16 9.8-22 15.5-6.1 5.7-14.4 16.1-18.5 23.1-4.1 7-8.9 19-10.7 26.7-2.4 9.8-3 18.8-2.3 30 0.9 13.2 8.8 42 46.2 167 24.9 83 47.7 156.4 50.7 163 3.5 7.4 10.5 16.9 18.6 25.1 7.6 7.7 17.6 15.5 24 18.6 6 2.9 15.9 6.7 22 8.3 6 1.6 17.3 3 25 3 7.7 0 18.9-1.4 25-3.2 6-1.7 16.4-6 22.9-9.5 6.6-3.5 16.6-10.8 22.2-16.3 6-5.8 13.3-15.9 17.4-24 3.8-7.7 8.1-19 9.5-25 1.4-6.3 2.1-17.8 1.5-27-0.7-12.2-4.6-28.4-16.3-68-8.4-28.6-14.9-52.2-14.3-52.5 0.6-0.3 8.1 3.6 16.6 8.6 8.5 5 24 15.1 34.3 22.5 10.4 7.4 27.4 21.5 37.8 31.4 10.4 9.9 24.7 25.6 31.8 35 7 9.3 16.8 25.1 21.6 35 4.8 9.9 10.1 23.4 11.7 30 1.7 6.6 3.6 16.9 4.4 23 0.7 6 0.3 17.7-1 26-1.3 8.2-4.5 20.4-7.2 27-2.7 6.6-7.8 16.9-11.4 23-3.6 6-15.5 20.1-26.5 31.2-13.1 13.3-26.9 24.9-40 33.4-11 7.2-32.2 19-47 26.1-14.9 7.1-36.5 16.2-48 20.3-11.6 4-32.7 10.3-47 14-14.3 3.8-36.4 8.8-49 11.3-18.6 3.7-30 4.6-59 4.6-23 0.1-41-0.9-50-2.7-7.7-1.5-20.8-5-29-7.6-8.3-2.7-21.8-8.2-30-12.3-8.3-4.2-20.9-11.4-28-16.2-7.2-4.8-22-17.8-33-28.9-12.4-12.5-25.7-28.6-34.8-42.2-8.1-12.1-19-30.6-24.2-41-5.2-10.5-13.6-29.4-18.6-42-5-12.7-12.2-33.8-16-47-3.9-13.2-9.3-34.8-12.1-48-2.7-13.2-6.8-36.2-9-51-2.2-14.9-5.2-38.7-6.6-53-1.4-14.3-2.5-51.7-2.6-83 0-34.9 1-64.7 2.6-77 1.4-11 5.1-33.1 8.3-49 3.2-16 9.5-39.8 14.1-53 4.5-13.2 11.4-30.8 15.2-39 3.8-8.3 10.2-20.4 14.2-27 4-6.6 11.9-18.3 17.5-26 5.7-7.7 15.2-19.3 21.2-25.8 5.9-6.5 18-17.6 26.8-24.6 8.8-7.1 24.6-18 35-24.3 10.5-6.2 28.9-15.3 41-20.1 12.1-4.8 33.7-11.7 48-15.3 14.3-3.6 37.7-8.1 52-10.1 19.3-2.7 38.9-3.6 76-3.6 34.8 0 58.8 1.1 79 3.5 15.9 1.9 42 5.7 58 8.4 15.9 2.8 41.1 7.8 56 11.1 22.6 5.1 29.9 6 45 5.2 13.1-0.6 21.5-2.3 31-6.1 7.1-2.9 18.4-9.6 25-14.8 6.6-5.3 15.9-15.4 20.6-22.5 4.8-7.2 10.6-19.3 12.8-27 3.4-11.3 4-17.8 3.3-34-0.7-18.5-1.4-21.3-9-37-6.3-12.9-11.3-19.9-21-29.1-7-6.6-17.7-14.4-23.7-17.4-6.1-3-24.5-8.6-41-12.4-16.5-3.9-45.8-9.7-65-12.9-19.3-3.3-47.2-7.3-62-9-14.9-1.7-40.5-4-57-5.1-16.5-1.1-43.5-1.9-60-1.7-16.5 0.2-34.5 0.6-40 0.9z"/></svg>