<svg viewBox="0 0 667 84" fill="none" xmlns="http://www.w3.org/2000/svg">
<path d="M38.887 82H26.497V12.2781H0.140091V1.12708H65.2439V12.2781H38.887V82ZM106.939 57.4453V22.3027H118.315V82H107.727V72.5385C104.573 78.7335 97.5899 83.1264 89.4801 83.1264C77.428 83.1264 69.0929 76.0303 69.0929 60.7117V22.3027H80.4692V58.459C80.4692 68.8215 85.6505 73.1017 93.0845 73.1017C100.744 73.1017 106.939 66.7941 106.939 57.4453ZM144.364 51.4755V82H132.988V22.3027H143.575V34.918C147.743 26.6955 156.754 21.5143 166.553 21.5143V33.3411C153.713 32.6653 144.364 38.2971 144.364 51.4755ZM231.424 52.1514C231.424 70.0605 221.061 83.1264 204.954 83.1264C196.507 83.1264 189.298 78.8462 185.018 71.2995V82H174.43V1.12708H185.806V32.5526C189.974 25.2313 196.845 21.1764 204.954 21.1764C220.949 21.1764 231.424 34.0169 231.424 52.1514ZM219.597 52.1514C219.597 38.635 212.501 31.201 202.702 31.201C193.24 31.201 185.806 38.5224 185.806 51.9261C185.806 65.1045 193.015 72.9891 202.702 72.9891C212.501 72.9891 219.597 65.4425 219.597 52.1514ZM266.837 83.1264C249.941 83.1264 237.551 69.8353 237.551 52.1514C237.551 34.4675 249.941 21.1764 266.837 21.1764C283.732 21.1764 296.122 34.4675 296.122 52.1514C296.122 69.8353 283.732 83.1264 266.837 83.1264ZM266.837 73.1017C276.636 73.1017 284.408 65.2172 284.408 52.1514C284.408 39.0855 276.636 31.3136 266.837 31.3136C257.037 31.3136 249.378 39.0855 249.378 52.1514C249.378 65.2172 257.037 73.1017 266.837 73.1017ZM366.628 58.3464C366.628 72.4259 355.364 83.1264 335.766 83.1264C316.28 83.1264 304.453 72.4259 303.439 56.3189H316.054C316.617 66.5688 323.15 73.2144 335.54 73.2144C345.79 73.2144 353.45 68.371 353.45 60.0359C353.45 53.2777 349.057 49.8986 339.708 47.8712L327.994 45.6185C316.617 43.3657 306.255 37.6213 306.255 23.8796C306.255 10.2506 318.194 0.000719194 334.977 0.000719194C351.76 0.000719194 364.488 10.2506 365.502 26.3576H352.886C352.211 16.6709 345.227 9.91272 335.09 9.91272C324.615 9.91272 318.87 16.1077 318.87 23.0912C318.87 30.7505 325.516 33.4537 333.062 35.0306L345.002 37.396C358.856 40.2119 366.628 46.2943 366.628 58.3464ZM412.842 70.9616V80.9863C409.351 82.5632 406.309 83.1264 402.705 83.1264C391.667 83.1264 384.007 77.1566 384.007 63.9782V31.9894H370.829V22.3027H384.007V4.61881H395.384V22.3027H413.406V31.9894H395.384V61.3875C395.384 69.61 399.326 72.5385 405.408 72.5385C408.112 72.5385 410.477 72.088 412.842 70.9616ZM459.293 82V72.7638C455.576 79.4094 448.93 83.1264 440.144 83.1264C427.754 83.1264 419.645 76.0303 419.645 65.1045C419.645 53.3904 428.993 47.308 446.79 47.308C450.282 47.308 453.098 47.4206 457.941 47.9838V43.591C457.941 35.0306 453.323 30.1873 445.438 30.1873C437.103 30.1873 432.035 35.1433 431.697 43.4784H421.334C421.897 30.0746 431.471 21.1764 445.438 21.1764C460.194 21.1764 468.754 29.5115 468.754 43.7036V82H459.293ZM430.458 64.7666C430.458 70.9616 435.076 75.0165 442.397 75.0165C451.971 75.0165 457.941 69.0468 457.941 59.9233V55.0799C453.548 54.5167 450.394 54.4041 447.466 54.4041C436.089 54.4041 430.458 57.7832 430.458 64.7666ZM494.214 51.4755V82H482.838V22.3027H493.426V34.918C497.593 26.6955 506.604 21.5143 516.404 21.5143V33.3411C503.563 32.6653 494.214 38.2971 494.214 51.4755ZM561.588 70.9616V80.9863C558.097 82.5632 555.055 83.1264 551.451 83.1264C540.413 83.1264 532.753 77.1566 532.753 63.9782V31.9894H519.575V22.3027H532.753V4.61881H544.13V22.3027H562.152V31.9894H544.13V61.3875C544.13 69.61 548.072 72.5385 554.154 72.5385C556.858 72.5385 559.223 72.088 561.588 70.9616ZM594.787 83.1264C577.554 83.1264 565.952 70.6237 565.952 51.8135C565.952 34.1295 578.004 21.1764 594.449 21.1764C612.246 21.1764 624.073 35.5938 622.045 54.9673H577.554C578.455 67.132 584.537 74.2281 594.562 74.2281C603.01 74.2281 608.867 69.61 610.781 61.8381H622.045C619.117 75.1292 608.867 83.1264 594.787 83.1264ZM594.224 29.7367C585.1 29.7367 578.905 36.2696 577.666 47.4206H609.993C609.43 36.3823 603.46 29.7367 594.224 29.7367ZM644.39 51.4755V82H633.014V22.3027H643.602V34.918C647.769 26.6955 656.78 21.5143 666.58 21.5143V33.3411C653.739 32.6653 644.39 38.2971 644.39 51.4755Z" fill="currentColor"/>
</svg>
