<svg  viewBox="0 0 512 517" fill="none" xmlns="http://www.w3.org/2000/svg">
<path fill-rule="evenodd" clip-rule="evenodd" d="M383.309 10.9714C383.309 4.91208 388.221 0 394.28 0C400.339 0 405.251 4.91208 405.251 10.9714V122.57C405.251 138.493 398.332 153.631 386.292 164.051L367.707 180.134L391.678 204.105L428.239 190.516C441.132 185.724 449.686 173.419 449.686 159.664V58.5143C449.686 52.4549 454.598 47.5429 460.657 47.5429C466.717 47.5429 471.629 52.4549 471.629 58.5143V159.664C471.629 182.589 457.372 203.097 435.883 211.084L405.175 222.498C415.977 243.457 415.977 268.543 405.175 289.502L440.649 302.687C459.273 309.609 471.629 327.383 471.629 347.251V453.486C471.629 459.545 466.717 464.457 460.657 464.457C454.598 464.457 449.686 459.545 449.686 453.486V347.251C449.686 336.553 443.033 326.983 433.005 323.255L391.678 307.895L367.707 331.866L388.819 350.137C399.255 359.167 405.251 372.287 405.251 386.087V501.029C405.251 507.088 400.339 512 394.28 512C388.221 512 383.309 507.088 383.309 501.029V386.087C383.309 378.656 380.08 371.592 374.461 366.729L352.151 347.423L266.345 433.229C260.632 438.941 251.37 438.941 245.657 433.229L160.142 347.713L138.168 366.729C132.549 371.592 129.32 378.656 129.32 386.087V501.029C129.32 507.088 124.408 512 118.349 512C112.289 512 107.377 507.088 107.377 501.029V386.087C107.377 372.287 113.374 359.167 123.809 350.137L144.586 332.157L120.493 308.065L79.624 323.255C69.5957 326.983 62.9429 336.553 62.9429 347.251V453.486C62.9429 459.545 58.0308 464.457 51.9714 464.457C45.9121 464.457 41 459.545 41 453.486V347.251C41 327.383 53.3553 309.609 71.9792 302.687L106.928 289.698C95.991 268.634 95.991 243.366 106.928 222.303L76.7452 211.084C55.2562 203.097 41 182.589 41 159.664V58.5143C41 52.4549 45.9121 47.5429 51.9714 47.5429C58.0308 47.5429 62.9429 52.4549 62.9429 58.5143V159.664C62.9429 173.419 71.4966 185.724 84.39 190.516L120.494 203.935L144.586 179.843L126.337 164.051C114.296 153.631 107.377 138.493 107.377 122.57V10.9714C107.377 4.91208 112.289 0 118.349 0C124.408 0 129.32 4.91208 129.32 10.9714V122.57C129.32 132.124 133.472 141.206 140.696 147.458L160.142 164.287L245.657 78.7717C251.37 73.0588 260.632 73.0589 266.345 78.7717L352.151 164.577L371.933 147.458C379.157 141.206 383.309 132.124 383.309 122.57V10.9714ZM267.067 166.768C272.383 161.416 281.338 166.639 279.298 173.901L268.742 211.469C266.776 218.467 272.035 225.408 279.304 225.408H318.878C335.139 225.408 343.311 245.043 331.851 256.58L244.619 344.4C239.303 349.752 230.348 344.529 232.388 337.267L242.944 299.699C244.91 292.701 239.65 285.76 232.381 285.76H192.808C176.547 285.76 168.375 266.125 179.835 254.588L267.067 166.768Z" fill="currentColor"/>
</svg>
